{"title":"G.I. Joe Retaliation 2013 Extended BluRay 720p DTS x264-[DDR]","uid":8707798,"size":3391987367,"categoryP":"video","categoryS":"hd___movies","magnet":"?xt=urn:btih:20d5caa08936002e6126aae31ec82fb927eda141&amp;dn=G.I.+Joe+Retaliation+2013+Extended+BluRay+720p+DTS+x264-%5BDDR%5D&amp;tr=udp%3A%2F%2Ftracker.openbittorrent.com%3A80&amp;tr=udp%3A%2F%2Fopen.demonii.com%3A1337&amp;tr=udp%3A%2F%2Ftracker.coppersurfer.tk%3A6969&amp;tr=udp%3A%2F%2Fexodus.desync.com%3A6969","seeders":0,"leechers":0,"uploader":"NokiaAnir","files":13,"time":1374172196,"description":"General\n\nFormat                           : MPEG-4\nFormat profile                   : Base Media\nCodec ID                         : isom\nFile size                        : 3.14 GiB\nDuration                         : 2h 3mn\nOverall bit rate                 : 3 650 Kbps\nMovie name                       : G.I. Joe Retaliation 2013 Extended By 3Li\nEncoded date                     : UTC 2013-07-16 21:41:41\nTagged date                      : UTC 2013-07-16 21:41:41\nWriting application              : Lavf51.12.1\n\n\nVideo\n\nID                               : 1\nFormat                           : AVC\nFormat/Info                      : Advanced Video Codec\nFormat profile                   : &lt;a class=&quot;__cf_email__&quot; href=&quot;/cdn-cgi/l/email-protection&quot; data-cfemail=&quot;b5f7d4c6d0d9dcdbd0f5f9869b84&quot;&gt;[email&amp;#160;protected]&lt;/a&gt;&lt;script cf-hash='f9e31' type=&quot;text/javascript&quot;&gt;\n/* &lt;![CDATA[ */!function(){try{var t=&quot;currentScript&quot;in document?document.currentScript:function(){for(var t=document.getElementsByTagName(&quot;script&quot;),e=t.length;e--;)if(t[e].getAttribute(&quot;cf-hash&quot;))return t[e]}();if(t&amp;&amp;t.previousSibling){var e,r,n,i,c=t.previousSibling,a=c.getAttribute(&quot;data-cfemail&quot;);if(a){for(e=&quot;&quot;,r=parseInt(a.substr(0,2),16),n=2;a.length-n;n+=2)i=parseInt(a.substr(n,2),16)^r,e+=String.fromCharCode(i);e=document.createTextNode(e),c.parentNode.replaceChild(e,c)}}}catch(u){}}();/* ]]&gt; */&lt;/script&gt;\nFormat settings, CABAC           : No\nFormat settings, ReFrames        : 1 frame\nCodec ID                         : avc1\nCodec ID/Info                    : Advanced Video Coding\nDuration                         : 2h 3mn\nBit rate mode                    : Variable\nBit rate                         : 3 517 Kbps\nWidth                            : 1 280 pixels\nHeight                           : 720 pixels\nDisplay aspect ratio             : 16:9\nFrame rate mode                  : Constant\nFrame rate                       : 29.970 fps\nColor space                      : YUV\nChroma subsampling               : 4:2:0\nBit depth                        : 8 bits\nScan type                        : Progressive\nBits/(Pixel*Frame)               : 0.127\nStream size                      : 3.02 GiB (96%)\nLanguage                         : English\nEncoded date                     : UTC 2013-07-16 21:41:41\nTagged date                      : UTC 2013-07-16 21:41:41\n\n\nAudio\n\nID                               : 2\nFormat                           : AAC\nFormat/Info                      : Advanced Audio Codec\nFormat profile                   : LC\nCodec ID                         : 40\nDuration                         : 2h 3mn\nBit rate mode                    : Variable\nBit rate                         : 128 Kbps\nChannel(s)                       : 2 channels\nChannel positions                : Front: L R\nSampling rate                    : 48.0 KHz\nCompression mode                 : Lossy\nStream size                      : 112 MiB (4%)\nLanguage                         : English\nEncoded date                     : UTC 2013-07-16 21:41:41\nTagged date                      : UTC 2013-07-16 21:41:41\n","torrent":{"xt":"urn:btih:20d5caa08936002e6126aae31ec82fb927eda141","amp;dn":"G.I.+Joe+Retaliation+2013+Extended+BluRay+720p+DTS+x264-%5BDDR%5D","amp;tr":["udp%3A%2F%2Ftracker.openbittorrent.com%3A80","udp%3A%2F%2Fopen.demonii.com%3A1337","udp%3A%2F%2Ftracker.coppersurfer.tk%3A6969","udp%3A%2F%2Fexodus.desync.com%3A6969"],"infoHash":"20d5caa08936002e6126aae31ec82fb927eda141","infoHashBuffer":{"type":"Buffer","data":[32,213,202,160,137,54,0,46,97,38,170,227,30,200,47,185,39,237,161,65]},"announce":[],"urlList":[]}}